<?xml version="1.0" encoding="utf-8"?>
<svg id="master-artboard" viewBox="0 0 1096 780" version="1.0" xmlns="http://www.w3.org/2000/svg" x="0px" y="0px" width="1096px" height="780px" enable-background="new 0 0 1096 780">

<g>
	
	
</g>
<g transform="matrix(3.046156644821167, 0, 0, 3.046156644821167, -1122.5031590319963, -55.165949495463934)">
	<path d="M 607.7999877929688 93.80000305175781 L 577.4000244140625 165.1999969482422 L 558.2999877929688 138.8000030517578 L 531.0999755859375 203 L 490.6000061035156 116.4000015258789 L 470.6000061035156 160.89999389648438 L 437.3999938964844 160.89999389648438 L 548 271.6000061035156 L 666.7999877929688 152.8000030517578 L 635.4000244140625 152.8000030517578 Z" fill="#E00000" style="fill: rgb(2, 165, 202);"/>
	<path fill="#E00000" d="M618.3,18c-31.8,0-59,19.5-70.3,47.3C536.7,37.6,509.5,18,477.7,18c-41.9,0-75.9,34-75.9,75.9&#10;&#9;&#9;c0,21.2,8.7,40.4,22.8,54.2l4.4,4.4h36.2l25.3-56.3l40.2,86.1l25.7-60.6l19.1,26.4l31.9-75.1l33.3,71.2H675&#10;&#9;&#9;c11.9-13.4,19.2-31.1,19.2-50.4C694.2,52,660.2,18,618.3,18z" style="fill: rgb(2, 165, 202);"/>
</g>







</svg>