<svg width="1096" height="780" xmlns="http://www.w3.org/2000/svg">

 <g>
  <title>background</title>
  <rect fill="none" id="canvas_background" height="602" width="802" y="-1" x="-1"/>
 </g>
 <g>
  <title>Layer 1</title>
  <g id="svg_1"/>
  <g id="svg_2" transform="matrix(3.04616 0 0 3.04616 -1122.5 -55.166)">
   <path id="svg_3" fill=" rgb(2, 165, 202)" d="m614.36566,100.36565l-30.39996,71.39999l-19.10004,-26.39999l-27.20001,64.2l-40.5,-86.59999l-20,44.49998l-33.20001,0l110.60004,110.70001l118.79999,-118.8l-31.39996,0l-27.60004,-58.99999z"/>
   <path id="svg_4" d="m624.86566,24.56565c-31.79999,0 -59,19.5 -70.29999,47.3c-11.29999,-27.7 -38.5,-47.3 -70.30002,-47.3c-41.89999,0 -75.89999,34 -75.89999,75.9c0,21.2 8.69998,40.39999 22.79999,54.2l4.39999,4.39999l36.20001,0l25.29999,-56.3l40.20004,86.1l25.70001,-60.60001l19.09998,26.40001l31.90002,-75.1l33.29999,71.19999l34.29999,0c11.90002,-13.39999 19.20001,-31.09999 19.20001,-50.39999c0,-41.8 -34,-75.8 -75.90002,-75.8z" fill=" rgb(2, 165, 202)"/>
  </g>
  <path d="m198,121.5c0,2 -1.14806,2.22836 0,5c0.5412,1.30656 1.83981,4.01291 2,5c0.50655,3.12144 4.46873,6.53976 6,14c0.80426,3.9183 1.79393,8.08743 4,13c0.91602,2.03983 3.33749,9.31001 5,12c2.23048,3.60901 5,6 10,11c3,3 5.57016,6.86989 13,10c6.70905,2.82645 9.96683,3.18323 15,4c7.95816,1.29143 10,1 13,1l3,0l1,0" id="svg_5" fill-opacity="null" stroke-opacity="null" stroke-width="null" stroke="null" fill="none"/>
  <path id="svg_11" d="m197,422.5l64,60.5c0,0.5 319,152.5 319,152.5c0,0 93,-72 93,-72.5c0,0.5 69,-83.5 69,-83.5c0,0 119,-22 120,-22c1,0 65,-28 65,-28.5c0,0.5 38,-38.5 38,-39c0,0.5 -114,-235.5 -114,-235.5c0,0 -114,-2 -114,-2.5c0,0.5 -257,72.5 -257,72c0,0.5 -129,-8.5 -129,-9c0,0.5 -48,39.5 -48,39c0,0.5 76,20.5 76,20c0,0.5 -144,126.5 -144,126c0,0.5 108,-185.5 -38,22.5z" fill-opacity="null" stroke-opacity="null" stroke-width="null" stroke="null" fill=" rgb(2, 165, 202)"/>
  <rect stroke="null" id="svg_12" height="305.00127" width="84.00035" y="238.49937" x="522.00215" stroke-opacity="null" stroke-width="null" fill="#ffffff"/>
  <rect transform="rotate(-89.5468 564.002 393)" stroke="null" id="svg_13" height="305.00127" width="84.00035" y="240.49938" x="522.00215" stroke-opacity="null" stroke-width="null" fill="#ffffff"/>
 </g>
</svg>